<?xml version="1.0" encoding="iso-8859-1"?>
<!-- Generator: Adobe Illustrator 19.0.0, SVG Export Plug-In . SVG Version: 6.00 Build 0)  -->
<svg version="1.1" id="Capa_1" xmlns="http://www.w3.org/2000/svg" xmlns:xlink="http://www.w3.org/1999/xlink" x="0px" y="0px"
	 viewBox="0 0 512.004 512.004" style="enable-background:new 0 0 512.004 512.004;" xml:space="preserve">
<g>
	<g>
		<path d="M423.554,344.473L82.221,3.14c-3.072-3.051-7.616-3.989-11.627-2.325c-3.989,1.643-6.592,5.547-6.592,9.856v490.667
			c0,4.395,2.688,8.32,6.763,9.92c1.259,0.512,2.581,0.747,3.904,0.747c2.901,0,5.76-1.195,7.808-3.413l135.509-145.92h198.016
			c4.309,0,8.213-2.581,9.856-6.571C427.522,352.111,426.605,347.524,423.554,344.473z M213.335,341.337
			c-2.965,0-5.803,1.237-7.808,3.413L85.335,474.18V36.42l304.917,304.917H213.335z"/>
	</g>
</g>
<g>
	<g>
		<path d="M402.135,173.871c-3.84-4.053-10.88-4.053-14.933,0c-2.133,1.92-3.2,4.693-3.2,7.467c0,2.773,1.067,5.547,3.2,7.68
			c1.92,1.92,4.693,2.987,7.467,2.987s5.547-1.067,7.467-3.2c2.133-1.92,3.2-4.693,3.2-7.467
			C405.335,178.564,404.269,175.791,402.135,173.871z"/>
	</g>
</g>
<g>
	<g>
		<path d="M394.669,21.337c-28.459,0-51.371,17.067-53.269,39.723c-0.491,5.867,3.861,11.029,9.728,11.52
			c5.781,0.619,11.029-3.861,11.52-9.728c0.917-11.136,15.296-20.181,32-20.181c17.344,0,32.021,9.771,32.021,21.333
			c0,3.136,0,12.629-20.779,18.624c-13.056,3.776-21.845,15.275-21.867,28.608l-0.021,27.435c0,5.888,4.779,10.667,10.667,10.667
			s10.667-4.757,10.667-10.645l0.021-27.435c0-3.755,2.581-7.019,6.443-8.128c31.509-9.088,36.203-28.416,36.203-39.125
			C448.002,40.495,424.066,21.359,394.669,21.337z"/>
	</g>
</g>
<g>
</g>
<g>
</g>
<g>
</g>
<g>
</g>
<g>
</g>
<g>
</g>
<g>
</g>
<g>
</g>
<g>
</g>
<g>
</g>
<g>
</g>
<g>
</g>
<g>
</g>
<g>
</g>
<g>
</g>
</svg>
