<svg height="681pt" viewBox="-44 -21 681 681.33443" width="681pt" xmlns="http://www.w3.org/2000/svg"><path d="m525.480469 425.929688-58.726563-42.066407-47.882812-94.601562c-17.269532-34.117188-48.496094-57.867188-85.296875-65.609375 4.351562-20.695313.519531-41.878906-10.871094-59.746094-11.546875-18.101562-29.449219-30.628906-50.414063-35.265625-43.285156-9.578125-86.28125 17.84375-95.859374 61.125-2.40625 10.890625-2.46875 21.769531-.53125 32.09375-22.070313 7.789063-42.039063 20.996094-57.816407 38.285156-16.636719 18.230469-28.261719 40.671875-33.617187 64.902344l-26.550782 119.972656-53.960937 64.277344c-11.160156 13.292969-3.984375 34.46875 12.976563 38.222656l89.871093 19.882813c-1.1875 32.585937 21.019531 62.480468 53.972657 69.773437 31.988281 7.078125 65.695312-10.265625 78.378906-40.492187l89.679687 19.84375c16.949219 3.753906 32.410157-12.402344 27.890625-29.175782l-6.664062-24.78125c18.574218 16.320313 46.132812 19.800782 68.214844 8.625 26.359374-13.339843 38.945312-43.242187 31.539062-70.714843l72.773438-36.832031c14.515624-7.347657 16.125-28.242188 2.894531-37.71875zm-201.023438-178.464844c31.082031 5.269531 57.625 24.6875 72.023438 53.128906l43.605469 86.148438-88.597657 44.84375 10.011719-45.246094c10.765625-48.652344-4.765625-99.097656-40.605469-133.308594 1.257813-1.800781 2.453125-3.652344 3.5625-5.566406zm-123.523437-52.28125c6.496094-29.355469 36.558594-48.53125 65.929687-42.039063 14.421875 3.191407 26.738281 11.804688 34.679688 24.257813 7.9375 12.449218 10.554687 27.25 7.363281 41.671875-6.589844 29.769531-36.160156 48.625-65.929688 42.039062-29.765624-6.585937-48.625-36.164062-42.042968-65.929687zm-1.714844 411.652344c-9.867188 6.289062-21.597656 8.363281-33.027344 5.832031-19.363281-4.28125-32.898437-20.851563-34.234375-39.703125l82.046875 18.152344c-3.488281 6.332031-8.523437 11.722656-14.785156 15.71875zm-174.464844-83.289063 49.441406-58.890625 72.046876 15.9375c15.730468 3.472656 21.171874-21.019531 5.417968-24.503906l-67.203125-14.867188 24.503907-110.757812c8.800781-39.777344 36.929687-71.445313 75.386718-84.972656 10.738282 19.726562 29.601563 34.902343 53.203125 40.125 22.882813 5.058593 47.292969-.351563 65.957031-14.503907 29.542969 28.167969 42.351563 69.734375 33.484376 109.804688l-24.503907 110.761719-61.75-13.664063c-15.730469-3.480469-21.171875 21.019531-5.421875 24.503906l66.554688 14.726563 19.980468 74.242187zm382.183594 25.261719c-8.644531 4.371094-18.46875 5.121094-27.675781 2.101562-5.082031-1.667968-9.640625-4.375-13.433594-7.917968l60.753906-30.753907c1.699219 14.664063-5.722656 29.523438-19.644531 36.570313zm-66.285156-21.199219-5.710938-21.226563 9.539063-43.125 111.347656-56.355468 51.046875 36.570312zm0 0"/><path d="m502.371094 0c-49.527344 0-89.820313 40.292969-89.820313 89.820312 0 49.527344 40.292969 89.824219 89.820313 89.824219s89.824218-40.296875 89.824218-89.824219c0-49.527343-40.296874-89.820312-89.824218-89.820312zm0 154.546875c-35.6875 0-64.722656-29.039063-64.722656-64.726563s29.035156-64.722656 64.722656-64.722656 64.726562 29.035156 64.726562 64.722656-29.039062 64.726563-64.726562 64.726563zm0 0"/><path d="m198.277344 467.414062c-6.816406 0-12.546875 5.726563-12.546875 12.550782 0 6.816406 5.730469 12.546875 12.546875 12.546875 6.628906-.003907 12.234375-5.398438 12.527344-12 .308593-7.019531-5.484376-13.097657-12.527344-13.097657zm0 0"/></svg>