<svg height="512pt" viewBox="0 -91 512 512" width="512pt" xmlns="http://www.w3.org/2000/svg"><path d="m95 330.003906c-52.382812 0-95-42.617187-95-95 0-52.382812 42.617188-95 95-95s95 42.617188 95 95c0 52.382813-42.617188 95-95 95zm0-160c-35.839844 0-65 29.160156-65 65s29.160156 65 65 65 65-29.160156 65-65-29.160156-65-65-65zm0 0" fill="#464646"/><path d="m160 235.003906c0 35.839844-29.160156 65-65 65v30c52.382812 0 95-42.617187 95-95 0-52.382812-42.617188-95-95-95v30c35.839844 0 65 29.160156 65 65zm0 0" fill="#2d2d2d"/><path d="m175.5 110.007812c-6.164062 0-11.941406-3.832031-14.128906-9.96875l-28.5-80c-2.78125-7.804687 1.289062-16.386718 9.09375-19.164062 7.804687-2.78125 16.386718 1.292969 19.164062 9.09375l28.5 80c2.78125 7.804688-1.289062 16.382812-9.09375 19.164062-1.664062.59375-3.363281.875-5.035156.875zm0 0" fill="#cde1e6"/><path d="m417 330.003906c-52.382812 0-95-42.617187-95-95 0-52.382812 42.617188-95 95-95s95 42.617188 95 95c0 52.382813-42.617188 95-95 95zm0-160c-35.839844 0-65 29.160156-65 65s29.160156 65 65 65 65-29.160156 65-65-29.160156-65-65-65zm0 0" fill="#464646"/><path d="m349.484375 87.492188c-2.679687-4.636719-7.628906-7.488282-12.984375-7.488282h-161c-.335938 0-.667969.011719-1 .03125-.097656.007813-.191406.023438-.285156.03125-.234375.019532-.472656.039063-.703125.070313-.105469.011719-.210938.035156-.316407.050781-.21875.035156-.4375.066406-.65625.109375-.117187.027344-.230468.058594-.347656.082031-.203125.046875-.40625.089844-.605468.144532-.128907.035156-.253907.078124-.382813.117187-.183594.054687-.371094.105469-.550781.167969-.128906.042968-.25.09375-.375.140625-.179688.066406-.363282.128906-.539063.203125-.117187.050781-.230469.105468-.347656.15625-.179687.082031-.359375.160156-.539063.246094-.109374.054687-.21875.117187-.328124.175781-.175782.09375-.355469.183593-.527344.285156-.101563.058594-.199219.125-.300782.1875-.175781.105469-.351562.210937-.523437.324219-.097656.0625-.183594.132812-.277344.195312-.171875.125-.347656.242188-.515625.371094-.085937.066406-.167968.136719-.25.203125-.167968.136719-.339844.273437-.503906.414063-.085938.074218-.167969.15625-.253906.234374-.152344.144532-.3125.28125-.460938.433594-.085937.085938-.167968.179688-.253906.265625-.140625.148438-.28125.296875-.417969.449219-.085937.097656-.164062.199219-.246093.296875-.128907.15625-.257813.304687-.378907.464844-.078125.101562-.148437.207031-.226562.3125-.117188.164062-.238281.324219-.351563.496093-.074218.109376-.144531.226563-.214844.34375-.101562.160157-.207031.320313-.304687.484376-.003906.003906-.003906.011718-.007813.019531-.003906.003906-.007812.007812-.011718.015625l-80.5 140c-2.667969 4.640625-2.660156 10.351562.023437 14.988281 2.679688 4.636719 7.628907 7.488281 12.984375 7.488281h161c.332032 0 .667969-.011718 1-.035156.09375-.003906.1875-.019531.285156-.027344.234376-.019531.46875-.039062.699219-.070312.109375-.011719.210938-.035156.316407-.050782.222656-.035156.441406-.066406.65625-.113281.132812-.023437.261718-.0625.390624-.089843.1875-.042969.378907-.082032.5625-.132813.144532-.039063.28125-.085937.425782-.128906.167968-.054688.34375-.101563.511718-.15625.125-.042969.25-.097657.375-.144531.179688-.066407.359376-.128907.535157-.203126.117187-.046874.230469-.105468.347656-.15625.179687-.082031.363281-.15625.539063-.246093.113281-.054688.21875-.117188.328124-.175781.179688-.09375.355469-.183594.53125-.28125.101563-.058594.199219-.125.300782-.1875.175781-.105469.351562-.210938.523437-.328126.09375-.0625.183594-.128906.277344-.195312.171875-.121094.347656-.242188.515625-.371094.085938-.0625.164062-.136718.25-.203125.167969-.136719.339844-.269531.503906-.414062.085938-.074219.171875-.160157.257813-.238281.152343-.140626.308593-.277344.457031-.425782.089844-.089844.171875-.1875.257812-.277344.140626-.144531.28125-.289062.410157-.4375.085937-.097656.164062-.199218.246093-.296874.128907-.15625.261719-.304688.382813-.464844.078125-.101563.148437-.207032.222656-.3125.121094-.164063.242188-.324219.355469-.496094.074219-.109375.140625-.230469.214844-.34375.101562-.160156.207031-.320312.300781-.484375.003906-.007813.007813-.011719.011719-.019531 0-.003906.003906-.011719.007812-.015625l80.5-140c2.667969-4.640625 2.660156-10.355469-.019531-14.988281zm-173.984375 37.601562 54.570312 94.910156h-109.140624zm80.5 79.816406-54.570312-94.90625h109.140624zm0 0" fill="#f93057"/><path d="m177 30.003906h-60c-8.285156 0-15-6.714844-15-15s6.714844-14.99999975 15-14.99999975h60c8.285156 0 15 6.71484375 15 14.99999975s-6.714844 15-15 15zm0 0" fill="#464646"/><path d="m417 140.003906v30c35.839844 0 65 29.160156 65 65s-29.160156 65-65 65v30c52.382812 0 95-42.617187 95-95 0-52.382812-42.617188-95-95-95zm0 0" fill="#2d2d2d"/><path d="m430.003906 227.527344-80.5-140c-.003906-.003906-.003906-.007813-.007812-.011719l-40.242188-69.988281c-.066406-.117188-.148437-.222656-.21875-.335938-.160156-.265625-.320312-.523437-.5-.777344-.132812-.1875-.269531-.371093-.414062-.550781-.148438-.195312-.300782-.390625-.460938-.578125-.175781-.207031-.355468-.40625-.542968-.601562-.144532-.148438-.285157-.296875-.433594-.441406-.207032-.199219-.417969-.390626-.632813-.578126-.152343-.128906-.304687-.257812-.457031-.382812-.21875-.171875-.441406-.335938-.664062-.496094-.175782-.125-.355469-.25-.539063-.367187-.207031-.136719-.421875-.261719-.636719-.386719s-.429687-.246094-.652344-.359375c-.195312-.097656-.390624-.195313-.589843-.285156-.25-.113281-.5-.222657-.753907-.324219-.1875-.074219-.375-.140625-.566406-.207031-.265625-.09375-.539062-.183594-.8125-.261719-.199218-.058594-.398437-.105469-.601562-.15625-.261719-.0625-.523438-.125-.792969-.171875-.238281-.046875-.480469-.078125-.722656-.109375-.230469-.03125-.460938-.066406-.695313-.085938-.300781-.027343-.601562-.035156-.90625-.046874-.136718-.003907-.273437-.019532-.410156-.019532h-51.25c-8.285156 0-15 6.714844-15 15s6.714844 15 15 15h42.570312l35.921876 62.46875c0 .003906.003906.003906.003906.007813l80.5 140c2.773437 4.824219 7.824218 7.527343 13.019531 7.527343 2.535156 0 5.105469-.644531 7.460937-2 7.183594-4.128906 9.65625-13.300781 5.527344-20.480468zm0 0" fill="#e1ebf0"/><path d="m349.503906 87.527344c-.003906-.003906-.003906-.007813-.007812-.011719l-40.242188-69.988281c-.066406-.117188-.148437-.222656-.21875-.335938-.160156-.265625-.320312-.523437-.5-.777344-.132812-.1875-.269531-.371093-.414062-.550781-.148438-.195312-.300782-.390625-.460938-.578125-.175781-.207031-.355468-.40625-.542968-.601562-.144532-.148438-.285157-.296875-.433594-.441406-.207032-.199219-.417969-.390626-.632813-.578126-.152343-.128906-.304687-.257812-.457031-.382812-.21875-.171875-.441406-.335938-.664062-.496094-.175782-.125-.355469-.25-.539063-.367187-.207031-.136719-.421875-.261719-.636719-.386719s-.429687-.246094-.652344-.359375c-.195312-.097656-.390624-.195313-.589843-.285156-.25-.113281-.5-.222657-.753907-.324219-.1875-.074219-.375-.140625-.566406-.207031-.265625-.09375-.539062-.183594-.8125-.261719-.199218-.058594-.398437-.105469-.601562-.15625-.261719-.0625-.523438-.125-.792969-.171875-.238281-.046875-.480469-.078125-.722656-.109375-.230469-.03125-.460938-.066406-.695313-.085938-.300781-.027343-.601562-.035156-.90625-.046874-.136718-.003907-.273437-.019532-.410156-.019532h-40.25v30h31.574219l35.917969 62.46875c.003906.003906.003906.003906.003906.007813l80.5 140c2.773437 4.824219 7.824218 7.527343 13.019531 7.527343 2.535156 0 5.105469-.644531 7.460937-2 7.183594-4.128906 9.65625-13.300781 5.527344-20.480468zm0 0" fill="#cde1e6"/><path d="m336.5 80.003906h-80.5v30h54.570312l-54.570312 94.90625v45.09375c.335938 0 .667969-.011718 1-.035156.097656-.003906.191406-.019531.285156-.027344.234375-.019531.472656-.039062.703125-.070312.105469-.011719.210938-.035156.316407-.050782.21875-.035156.4375-.066406.65625-.113281.128906-.023437.257812-.0625.386718-.089843.1875-.042969.378906-.082032.566406-.132813.140626-.039063.28125-.085937.421876-.128906.171874-.054688.34375-.101563.511718-.15625.128906-.042969.25-.097657.375-.144531.179688-.066407.363282-.128907.539063-.203126.117187-.046874.230469-.105468.347656-.15625.179687-.082031.359375-.15625.539063-.246093.109374-.054688.21875-.117188.328124-.175781.175782-.09375.355469-.183594.527344-.28125.101563-.058594.199219-.125.300782-.1875.175781-.105469.351562-.210938.523437-.328126.097656-.0625.183594-.128906.277344-.195312.171875-.121094.347656-.242188.515625-.371094.085937-.0625.167968-.136718.25-.203125.167968-.136719.339844-.269531.503906-.414062.089844-.074219.171875-.160157.257812-.238281.152344-.140626.308594-.277344.457032-.425782.089844-.089844.175781-.1875.261718-.277344.136719-.144531.277344-.289062.410157-.4375.085937-.097656.164062-.199218.246093-.296874.128907-.15625.257813-.304688.378907-.464844.078125-.101563.148437-.207032.226562-.3125.117188-.164063.238281-.324219.351563-.496094.074218-.109375.144531-.230469.214844-.34375.101562-.160156.207031-.320312.304687-.484375.003906-.007813.003906-.011719.007813-.019531.003906-.003906.007812-.011719.011718-.015625l80.5-140c2.667969-4.644531 2.660156-10.355469-.023437-14.988281-2.679688-4.636719-7.625-7.488282-12.980469-7.488282zm0 0" fill="#e22753"/></svg>