<svg id="Capa_1" enable-background="new 0 0 512 512" height="512" viewBox="0 0 512 512" width="512" xmlns="http://www.w3.org/2000/svg"><path d="m120 319.619v182.381c0 3.466 1.795 6.685 4.742 8.507 2.939 1.815 6.617 1.993 9.729.438l115.635-57.817 121.594 57.9c2.589 1.23 5.84 1.315 8.6 0l126-60c3.481-1.659 5.7-5.172 5.7-9.029v-281.999c0-3.432-1.76-6.624-4.661-8.456s-6.537-2.049-9.639-.573l-121.7 57.953-121.7-57.952c-.054-.026-.11-.044-.165-.069-.059-.027-.114-.058-.173-.083-13.492-42.593-48.371-75.759-91.973-86.833 5.027-6.688 8.011-14.995 8.011-23.987 0-22.056-17.944-40-40-40s-40 17.944-40 40c0 8.992 2.984 17.299 8.011 23.987-56.265 14.289-98.011 65.366-98.011 126.013 0 68.318 52.972 124.496 120 129.619zm20 166.201v-166.201c42.09-3.217 78.631-26.57 100-60.415v176.616zm246-259.506 106-50.476v259.848l-106 50.476v-91.163c0-5.523-4.478-10-10-10s-10 4.477-10 10v91.163l-106-50.477v-259.847l106 50.476v78.684c0 5.523 4.478 10 10 10s10-4.477 10-10zm-276-186.314c0-11.028 8.972-20 20-20s20 8.972 20 20-8.972 20-20 20-20-8.972-20-20zm10 40.459v19.541c0 5.523 4.478 10 10 10s10-4.477 10-10v-19.541c52.69 4.771 94.77 46.851 99.541 99.541h-19.541c-5.522 0-10 4.477-10 10s4.478 10 10 9.99h19.541c-4.771 52.7-46.851 94.779-99.541 99.551v-19.541c0-5.523-4.478-10-10-10s-10 4.477-10 10v19.541c-52.69-4.772-94.77-46.851-99.541-99.541h19.541c5.522 0 10-4.477 10-10s-4.478-10-10-10h-19.541c4.771-52.69 46.851-94.769 99.541-99.541z"/><path d="m99.304 214.373c.995 2.985 3.338 5.328 6.323 6.323l63.64 21.22c3.586 1.196 7.549.269 10.234-2.415 2.679-2.679 3.613-6.641 2.415-10.234l-21.22-63.64c-.995-2.985-3.338-5.328-6.323-6.323l-63.64-21.22c-3.591-1.198-7.555-.264-10.234 2.415s-3.613 6.641-2.415 10.234zm44.001-37.678 13.311 39.92-39.92-13.311-13.311-39.92z"/><circle cx="376" cy="349.999" r="10"/></svg>